<?xml version="1.0" encoding="UTF-8"?>
<svg id="Layer_1" data-name="Layer 1" xmlns="http://www.w3.org/2000/svg" viewBox="0 0 1080 1080">
  <defs>
    <style>
      .cls-1 {
        fill: #fff;
        stroke: #fff;
        stroke-miterlimit: 10;
        stroke-width: 20px;
      }
    </style>
  </defs>
  <rect class="cls-1" x="670.07" y="122.58" width="19.65" height="348.65" transform="translate(-10.81 567.71) rotate(-45)"/>
  <path class="cls-1" d="M563.57,743.99l-13.89,13.89,155.4,155.4c1.92,1.92,4.45,2.87,6.95,2.87,2.52,0,5.03-.96,6.94-2.87,3.84-3.84,3.84-10.05,0-13.89l-155.4-155.41Z"/>
  <path class="cls-1" d="M352.09,899.23c-3.84,3.84-3.84,10.05,0,13.89,1.92,1.92,4.45,2.87,6.94,2.87s5.03-.96,6.95-2.87l155.4-155.4-13.89-13.89-155.4,155.41Z"/>
  <rect class="cls-1" x="381.35" y="411.05" width="19.65" height="348.66" transform="translate(-299.35 448.06) rotate(-45)"/>
  <rect class="cls-1" x="505.56" y="575.55" width="348.65" height="19.65" transform="translate(-214.79 652.21) rotate(-45)"/>
  <path class="cls-1" d="M970.19,573.08l-44.88-44.88s0,0-.01-.01l-73.02-73.02-13.89,13.89,44.89,44.89h0s73.02,73.02,73.02,73.02c3.84,3.84,10.05,3.84,13.89,0,1.92-1.92,2.87-4.44,2.87-6.95s-.96-5.03-2.87-6.94Z"/>
  <rect class="cls-1" x="216.85" y="287.07" width="348.65" height="19.65" transform="translate(-95.37 363.56) rotate(-45)"/>
  <path class="cls-1" d="M100.96,573.08l44.88-44.88s0,0,.01-.01l73.02-73.02,13.89,13.89-44.89,44.89h0s-73.02,73.02-73.02,73.02c-3.84,3.84-10.05,3.84-13.89,0-1.92-1.92-2.87-4.44-2.87-6.95,0-2.52,.96-5.03,2.87-6.94Z"/>
  <rect class="cls-1" x="522.46" y="313.67" width="19.65" height="19.64" transform="translate(-72.84 471.13) rotate(-45)"/>
</svg>