<?xml version="1.0" encoding="UTF-8"?>
<svg id="Layer_1" data-name="Layer 1" xmlns="http://www.w3.org/2000/svg" viewBox="0 0 1080 1080">
  <defs>
    <style>
      .cls-1 {
        stroke: #000;
        stroke-miterlimit: 10;
        stroke-width: 20px;
      }
    </style>
  </defs>
  <rect class="cls-1" x="674.68" y="119.66" width="19.65" height="348.65" transform="translate(-7.4 570.12) rotate(-45)"/>
  <path class="cls-1" d="M568.18,741.07l-13.89,13.89,155.4,155.4c1.92,1.92,4.45,2.87,6.95,2.87,2.52,0,5.03-.96,6.94-2.87,3.84-3.84,3.84-10.05,0-13.89l-155.4-155.41Z"/>
  <path class="cls-1" d="M356.71,896.31c-3.84,3.84-3.84,10.05,0,13.89,1.92,1.92,4.45,2.87,6.94,2.87s5.03-.96,6.95-2.87l155.4-155.4-13.89-13.89-155.4,155.41Z"/>
  <rect class="cls-1" x="385.96" y="408.13" width="19.65" height="348.66" transform="translate(-295.94 450.46) rotate(-45)"/>
  <rect class="cls-1" x="510.18" y="572.64" width="348.65" height="19.65" transform="translate(-211.38 654.62) rotate(-45)"/>
  <path class="cls-1" d="M974.81,570.16l-44.88-44.88s0,0-.01-.01l-73.02-73.02-13.89,13.89,44.89,44.89h0s73.02,73.02,73.02,73.02c3.84,3.84,10.05,3.84,13.89,0,1.92-1.92,2.87-4.44,2.87-6.95s-.96-5.03-2.87-6.94Z"/>
  <rect class="cls-1" x="221.46" y="284.16" width="348.65" height="19.65" transform="translate(-91.95 365.97) rotate(-45)"/>
  <path class="cls-1" d="M105.58,570.16l44.88-44.88s0,0,.01-.01l73.02-73.02,13.89,13.89-44.89,44.89h0s-73.02,73.02-73.02,73.02c-3.84,3.84-10.05,3.84-13.89,0-1.92-1.92-2.87-4.44-2.87-6.95s.96-5.03,2.87-6.94Z"/>
  <rect class="cls-1" x="527.07" y="310.75" width="19.65" height="19.64" transform="translate(-69.43 473.54) rotate(-45)"/>
</svg>